<svg width="100" height="100" viewBox="0 0 100 100" fill="none" xmlns="http://www.w3.org/2000/svg">
<g clip-path="url(#clip0_13_122)">
<mask id="mask0_13_122" style="mask-type:luminance" maskUnits="userSpaceOnUse" x="0" y="0" width="100" height="100">
<path d="M0 0H100V100H0V0Z" fill="white"/>
</mask>
<g mask="url(#mask0_13_122)">
<path d="M55.6112 37.2413C55.4004 37.2637 55.1899 37.2818 54.9797 37.2972C54.8721 37.499 54.7607 37.7023 54.6444 37.9067C54.2979 38.5172 53.9279 39.1407 53.5339 39.7772C53.4281 39.6882 53.3217 39.5992 53.2152 39.5098C52.869 38.8152 52.5344 38.121 52.2107 37.4278C51.8021 36.5507 51.4359 35.6862 51.1199 34.8368C50.5292 33.5638 50.0746 32.3343 49.7566 31.1723C49.3444 29.6192 49.0834 28.1607 48.9744 26.8107C48.9697 26.7277 48.9654 26.6457 48.9627 26.5643C49.0356 26.6177 49.1081 26.672 49.1804 26.7275C50.3166 27.6303 51.4187 28.6647 52.486 29.825C53.2621 30.679 54.0129 31.6548 54.7302 32.744C55.2376 33.4047 55.7319 34.1065 56.2162 34.8447C56.5969 35.4263 56.9734 36.0158 57.3447 36.6138C57.3716 36.7455 57.3979 36.8773 57.4245 37.009C56.827 37.0995 56.2224 37.1775 55.6112 37.2413ZM61.6734 36.5203C61.6699 37.1185 61.659 37.7272 61.6404 38.3468C61.597 38.4403 61.5537 38.534 61.5102 38.628C61.0434 38.196 60.5804 37.7543 60.1227 37.3037C59.9659 37.1492 59.8109 36.993 59.6582 36.8357C59.4861 36.8578 59.3095 36.8775 59.129 36.8938C58.5875 36.9438 58.0196 36.9823 57.4247 37.009C57.3981 36.8773 57.3716 36.7457 57.3449 36.6138C57.4647 35.9785 57.5901 35.3635 57.7202 34.7683C57.8821 34.0305 58.0622 33.3458 58.2637 32.7178C58.4834 31.7177 58.7622 30.8592 59.0896 30.1455C59.522 29.226 59.993 28.4698 60.4986 27.873C60.5301 27.8377 60.5622 27.8038 60.5942 27.771C60.6166 27.8372 60.6379 27.9043 60.6589 27.9713C60.9797 29.0575 61.2322 30.2077 61.4167 31.4255C61.5499 32.342 61.6167 33.3205 61.612 34.3557C61.6582 35.0527 61.6774 35.7737 61.6734 36.5203ZM65.7255 36.3178C66.404 36.1822 67.0379 36.1578 67.6287 36.2377C67.6649 36.2438 67.7009 36.2505 67.7364 36.2582C67.7264 36.3075 67.7155 36.3568 67.704 36.4057C67.506 37.1938 67.2279 37.9825 66.8649 38.7737C66.5817 39.3778 66.2174 39.975 65.7674 40.557C65.4965 40.997 65.1907 41.4347 64.8512 41.8738C64.575 42.2303 64.2855 42.5915 63.9815 42.9572C63.9042 42.977 63.8269 42.997 63.749 43.0172C63.5997 42.3442 63.4604 41.6793 63.3307 41.0235C63.2872 40.801 63.2459 40.5805 63.2069 40.3622C63.07 40.2318 62.9319 40.0968 62.7924 39.9565C62.3759 39.539 61.9482 39.096 61.5104 38.628C61.5539 38.5342 61.5972 38.4403 61.6407 38.3468C62.0237 38.0977 62.3969 37.8658 62.7607 37.651C63.2077 37.3877 63.6387 37.1695 64.0555 36.999C64.6412 36.6543 65.1992 36.4302 65.7255 36.3178ZM66.4655 44.2418C67.0785 44.5432 67.6182 44.8982 68.0862 45.298C68.6889 45.8233 69.2124 46.3855 69.6619 46.983C69.6887 47.0208 69.715 47.0587 69.7414 47.0968C69.7122 47.1205 69.6829 47.144 69.6524 47.1665C69.152 47.5202 68.5784 47.8027 67.9264 48.01C67.4184 48.164 66.8426 48.236 66.1994 48.2157C65.7677 48.2672 65.3062 48.283 64.814 48.2675C64.413 48.2542 63.9967 48.231 63.5655 48.1973C63.4927 48.1363 63.4202 48.0752 63.3472 48.0138C63.5676 47.3922 63.7882 46.7953 64.0087 46.2243C64.0827 46.0325 64.1574 45.8457 64.2327 45.6633C64.188 45.4502 64.1449 45.2337 64.1031 45.0138C63.98 44.364 63.8617 43.6982 63.749 43.0173C63.8269 42.9972 63.9042 42.9772 63.9815 42.9572C64.3907 43.138 64.7845 43.3218 65.1637 43.5075C65.6295 43.7365 66.0634 43.9798 66.4655 44.2418ZM73.763 43.4785C73.4474 44.3095 73.0474 44.9438 72.5672 45.3592C72.5596 45.367 72.5522 45.375 72.5444 45.3825C72.5474 45.3992 72.5505 45.4155 72.553 45.432C72.7217 46.2083 72.8101 47.0318 72.82 47.8978C72.7486 48.7495 72.5999 49.5307 72.3729 50.2327C72.369 50.2478 72.3647 50.2633 72.36 50.2785C72.3672 50.2907 72.3742 50.3028 72.3814 50.315C72.834 51.0015 73.194 51.8825 73.4594 52.9412C73.4617 52.9548 73.4615 52.9743 73.4584 52.9963C73.4584 53.0082 73.4534 53.0213 73.4489 53.0297C73.442 53.0398 73.4325 53.0468 73.4325 53.0468C73.4052 53.0243 73.3814 52.9893 73.3617 52.941C73.1129 52.5428 72.8275 52.2233 72.5077 51.9863C72.2592 51.8153 71.9995 51.6568 71.7282 51.5132C71.4119 51.4353 71.0817 51.375 70.7369 51.3303C69.9645 51.3243 69.0977 51.4872 68.1284 51.8357C68.1992 51.9615 68.2702 52.0848 68.3412 52.2055C68.2397 52.1817 68.1364 52.159 68.0317 52.1378C68.4237 53.6618 68.8649 54.9825 69.3469 56.0923C69.5877 56.5673 69.8287 57.0135 70.0714 57.431C70.3194 57.7348 70.5675 58.0112 70.8154 58.2622C71.1427 58.5727 71.4867 58.7692 71.8412 58.8517C71.8767 58.8447 71.9092 58.8558 71.9384 58.8805C71.9384 58.8805 71.942 58.9007 71.9412 58.9183C71.941 58.9318 71.9374 58.9485 71.9322 58.9577C71.923 58.9773 71.9154 58.994 71.9072 59.0002C71.2237 59.3945 70.5444 59.5142 69.8887 59.3355C69.8779 59.3338 69.8667 59.332 69.8557 59.33C69.8504 59.3488 69.8451 59.3675 69.84 59.3863C69.6202 60.3122 69.2957 61.208 68.8659 62.068C68.3544 62.83 67.7952 63.437 67.1929 63.8715C67.1805 63.8822 67.1679 63.8927 67.155 63.903C67.1557 63.9245 67.1562 63.9463 67.1562 63.968C67.2239 65.2807 67.0909 66.7172 66.7552 68.2697C66.75 68.2885 66.7384 68.3098 66.7224 68.3315C66.7157 68.3452 66.703 68.3537 66.6934 68.3567C66.6807 68.3595 66.6667 68.3538 66.6667 68.3538C66.6519 68.29 66.6475 68.2165 66.6559 68.1348C66.6334 67.3428 66.5289 66.6005 66.3451 65.9123C66.1965 65.397 66.0305 64.8857 65.8467 64.3792C65.5825 63.8875 65.2979 63.4002 64.9916 62.9138C64.2599 61.9318 63.3512 61.0133 62.2481 60.1598C62.2379 60.3698 62.2292 60.5782 62.2219 60.785V60.7848C62.1424 60.6353 62.0607 60.486 61.9775 60.336C61.404 62.3543 60.9815 64.3145 60.7197 66.1802C60.6376 67.0483 60.5739 67.8987 60.5314 68.7318C60.5699 69.4493 60.6286 70.1435 60.7049 70.8145C60.8222 71.6868 61.036 72.453 61.3452 73.0962C61.3862 73.1422 61.413 73.2052 61.4259 73.2817C61.4259 73.2817 61.4155 73.3132 61.4027 73.3352C61.3935 73.3522 61.3777 73.3683 61.3662 73.372C61.3432 73.385 61.323 73.3933 61.3104 73.3888C60.3285 72.854 59.5526 71.9757 59.0207 70.7718C59.0107 70.7537 59.0009 70.735 58.9916 70.7162C58.9727 70.7322 58.9541 70.7472 58.9356 70.763C58.0409 71.5942 57.0461 72.2452 55.9549 72.698C54.8441 72.9037 53.8007 72.8292 52.8532 72.4618C52.8324 72.4572 52.8116 72.4512 52.7906 72.4445C52.7732 72.4733 52.7546 72.5022 52.7372 72.5312C51.6851 74.398 50.2789 76.1827 48.5056 77.8675C48.4819 77.8853 48.4502 77.8953 48.4142 77.9028C48.3947 77.911 48.3736 77.9032 48.3619 77.89C48.3464 77.873 48.3384 77.8402 48.3384 77.8402C48.3851 77.7205 48.4506 77.6053 48.5362 77.4992C49.2571 76.314 49.8356 75.093 50.2757 73.8478C50.5867 72.9172 50.8737 71.9823 51.1337 71.0428C51.3016 70.018 51.4426 68.9877 51.5607 67.9475C51.6892 65.7485 51.6061 63.4683 51.3062 61.0963C51.1344 61.3017 50.9639 61.5078 50.7952 61.7155V61.7158H50.795L50.7952 61.7155C50.8439 61.4545 50.8904 61.1915 50.9361 60.9272C48.8249 62.3003 46.8019 63.8778 44.9094 65.6488C44.0322 66.5592 43.1684 67.4973 42.3186 68.4663C41.6361 69.4358 40.9806 70.4278 40.3497 71.4382C39.5242 72.8148 38.8786 74.2437 38.4341 75.6958C38.4204 75.8335 38.3726 75.9723 38.2966 76.1068C38.2966 76.1068 38.2519 76.1353 38.2159 76.1458C38.1881 76.1535 38.1537 76.1545 38.1412 76.1372C38.1072 76.1153 38.0794 76.0938 38.0729 76.0662C37.8147 73.6293 38.1156 71.1508 38.9541 68.7398C38.9646 68.7012 38.9764 68.6627 38.9879 68.624C38.9552 68.6165 38.9237 68.6067 38.8921 68.5977C37.2642 68.2817 35.7452 67.5783 34.3741 66.485C33.2804 65.0718 32.5677 63.4558 32.2674 61.6808C32.2586 61.645 32.2484 61.6092 32.2402 61.5728C32.1954 61.581 32.1499 61.588 32.1049 61.5953C29.2176 62.2262 26.0896 62.264 22.7739 61.6473C22.7349 61.6345 22.6997 61.6007 22.6684 61.5553C22.6441 61.5373 22.6407 61.4965 22.6497 61.4642C22.6611 61.422 22.6981 61.3723 22.6981 61.3723C22.8812 61.3012 23.0719 61.2638 23.2631 61.265C25.2257 60.942 27.0942 60.3858 28.8522 59.624C30.1232 59.044 31.3572 58.4373 32.5521 57.8025C33.7441 56.9743 34.8946 56.1277 36.0096 55.262C38.1894 53.3583 40.1724 51.2398 41.9661 48.9318C41.6744 48.91 41.3824 48.8912 41.0897 48.8743L41.0899 48.8742C41.3419 48.7167 41.5927 48.5577 41.8421 48.3957C39.2269 47.2128 36.4987 46.2835 33.6681 45.6375C32.2621 45.4043 30.8282 45.2043 29.3616 45.0422C27.9817 45.0587 26.5787 45.1203 25.1522 45.2257C23.1971 45.408 21.2446 45.837 19.3279 46.5255C19.1582 46.6235 18.9689 46.6837 18.7687 46.7105C18.7687 46.7105 18.7099 46.6833 18.6781 46.6505C18.6536 46.625 18.6362 46.5873 18.6469 46.5578C18.6531 46.5008 18.6642 46.4508 18.6936 46.4207C21.3382 44.1793 24.1716 42.6283 27.0961 41.7482C27.1402 41.732 27.1851 41.7157 27.2297 41.7005C27.2199 41.6617 27.2102 41.6233 27.2004 41.585C26.5856 39.7528 26.4224 37.8385 26.7082 35.8992C27.4184 34.1072 28.4699 32.6068 29.8266 31.4267C29.8516 31.4008 29.8764 31.3742 29.9027 31.349C29.8726 31.3168 29.8429 31.2838 29.8129 31.2512C27.8027 29.2713 26.2361 26.8998 25.1952 24.2257C25.1879 24.1932 25.2006 24.1545 25.2229 24.1138C25.2244 24.0888 25.2586 24.0712 25.2896 24.0635C25.3294 24.0552 25.3869 24.0597 25.3869 24.0597C25.5296 24.16 25.6484 24.2788 25.7356 24.4145C26.9196 25.6842 28.2727 26.8082 29.7569 27.7715C30.8619 28.4612 31.9764 29.113 33.0974 29.727C34.3696 30.2467 35.6337 30.7253 36.8909 31.1675C39.4946 31.9228 42.1097 32.4138 44.6979 32.6548C44.5367 32.4195 44.3757 32.1857 44.2126 31.9538L44.2122 31.9533V31.9532L44.2127 31.9538C44.4634 32.0693 44.7147 32.183 44.9669 32.2945C44.1797 29.7857 43.2177 27.4458 42.0771 25.2695C41.4771 24.26 40.8559 23.2665 40.2074 22.2877C39.5076 21.442 38.7789 20.6132 38.0254 19.7967C36.9869 18.7098 35.8179 17.7202 34.5209 16.8413C34.3836 16.775 34.2606 16.6868 34.1554 16.5822C34.1554 16.5822 34.1464 16.5417 34.1531 16.5145C34.1577 16.4935 34.1744 16.4738 34.1977 16.4708C34.2366 16.4587 34.2721 16.4513 34.3042 16.4575C36.8772 17.284 39.1201 18.42 41.0396 19.827C41.0707 19.8477 41.1016 19.869 41.1326 19.8897C41.1506 19.8723 41.1677 19.854 41.1849 19.8362C41.9267 18.9167 42.9035 18.2555 44.0787 17.852C45.3512 17.7268 46.6201 17.8678 47.8696 18.2587C47.8944 18.2653 47.9197 18.2713 47.9451 18.2775C47.9456 18.2522 47.9471 18.2265 47.948 18.2017C47.9172 16.6115 48.2761 15.2227 48.9951 14.0823C49.0066 14.0717 49.0292 14.0687 49.0574 14.0693C49.0706 14.0663 49.0937 14.0755 49.1104 14.0892C49.133 14.106 49.1574 14.1347 49.1574 14.1347C49.1796 14.2253 49.1822 14.3097 49.1627 14.3828C49.1521 15.2587 49.2886 16.2097 49.5682 17.2152C49.7949 17.9765 50.0489 18.7493 50.3302 19.5323C50.7411 20.3882 51.1762 21.2462 51.6351 22.1075C52.694 23.8962 53.9336 25.6738 55.3254 27.4078C55.3422 27.2125 55.3572 27.0183 55.3699 26.8253C55.4629 27.03 55.558 27.2348 55.6549 27.441C56.3482 25.9907 56.8342 24.568 57.1276 23.1652C57.2194 22.4965 57.2909 21.8363 57.3409 21.1805C57.3074 20.5508 57.2537 19.9235 57.1827 19.2992C57.0721 18.47 56.8602 17.6233 56.5471 16.7643C56.5042 16.6813 56.4774 16.6003 56.4649 16.5235C56.4649 16.5235 56.4759 16.5095 56.4897 16.5057C56.5002 16.5035 56.5157 16.5058 56.5285 16.5162C56.5526 16.532 56.5736 16.547 56.5869 16.5643C57.5694 18.0353 58.298 19.4807 58.7752 20.8935C58.7839 20.9162 58.7931 20.9392 58.8012 20.9618C58.8176 20.9657 58.834 20.9702 58.8506 20.974C59.6101 21.0983 60.3964 21.4242 61.1971 21.9357C61.9549 22.5902 62.6215 23.3357 63.1969 24.164C63.2085 24.1805 63.2209 24.1968 63.2337 24.2132C63.2437 24.2053 63.2532 24.1968 63.2632 24.1898C63.8215 23.6552 64.5195 23.4113 65.328 23.4468C65.3382 23.4492 65.3525 23.4612 65.3684 23.4768C65.3774 23.4822 65.3865 23.4987 65.3924 23.5122C65.3994 23.53 65.4039 23.5522 65.4039 23.5522C65.3852 23.5932 65.3582 23.6212 65.3219 23.634C65.0132 23.908 64.7602 24.2935 64.5669 24.7843C64.4272 25.171 64.2974 25.583 64.1786 26.0215C64.1084 26.5702 64.0515 27.145 64.0067 27.7467C63.9771 29.1022 64.067 30.6318 64.2792 32.319C64.369 32.244 64.4567 32.1687 64.543 32.093C64.317 32.5793 64.088 33.0727 63.856 33.573C63.8442 33.3437 63.8332 33.1147 63.823 32.886C63.7152 30.948 63.4814 29.1458 63.1242 27.4725C62.9469 26.7858 62.7596 26.1118 62.5607 25.4502C62.3264 24.864 62.0799 24.2888 61.8239 23.7242C61.6179 23.2868 61.3897 22.8667 61.1424 22.4638C60.8491 22.47 60.5642 22.521 60.2882 22.6158C59.9339 22.7578 59.577 22.9267 59.2206 23.1277C58.8757 23.4565 58.5316 23.8202 58.1874 24.2188C57.4039 25.3368 56.6982 26.8123 56.0889 28.6562C56.0186 28.8797 55.9472 29.1038 55.8749 29.3288C55.7077 29.0882 55.541 28.8455 55.3734 28.6015C53.8936 26.4892 52.335 24.5867 50.7017 22.9137C49.9836 22.2452 49.2552 21.5938 48.5135 20.9628C47.7977 20.4742 47.0712 20.0103 46.3351 19.5675C45.7509 19.2315 45.1592 18.945 44.5616 18.7133C44.3289 19.1428 44.1476 19.6237 44.0202 20.1535C43.8756 20.856 43.7575 21.5927 43.6729 22.3657C43.7225 23.2873 43.8057 24.2398 43.9212 25.2232C44.3716 27.6592 45.1807 30.3082 46.3304 33.1055C46.4684 33.4288 46.6044 33.7518 46.739 34.0743C46.4179 34.0145 46.0937 33.954 45.7659 33.8907C42.8352 33.3687 39.9161 33.1547 37.0651 33.2888C35.8536 33.4252 34.6394 33.598 33.4237 33.8102C32.3749 34.1573 31.3392 34.5457 30.3171 34.9768C29.5206 35.3357 28.7762 35.764 28.0911 36.2588C28.4494 37.0295 28.8969 37.7795 29.4311 38.5017C30.1392 39.4108 30.8862 40.3028 31.6774 41.1708C32.6936 42.007 33.7376 42.8118 34.8051 43.5877C37.4344 45.2502 40.3154 46.6177 43.3537 47.6827C43.6962 47.7972 44.0344 47.9122 44.3696 48.0267C44.1207 48.2917 43.8697 48.5588 43.6149 48.827C41.3909 51.2352 39.4612 53.8012 37.9034 56.465C37.3226 57.6205 36.7766 58.7813 36.2729 59.9485C35.9782 61.0298 35.7344 62.1033 35.5304 63.1663C35.3959 63.993 35.3439 64.7982 35.3781 65.5753C36.1681 65.6602 36.9779 65.6637 37.8017 65.5893C38.8441 65.4707 39.8792 65.3127 40.9076 65.115C42.0202 64.7353 43.1157 64.3235 44.1961 63.8857C46.6662 62.7008 49.0659 61.1987 51.369 59.4303C51.6255 59.2278 51.8809 59.0292 52.1335 58.8318C52.1427 59.1585 52.1511 59.4858 52.1584 59.8135C52.2542 62.5992 52.5794 65.0663 53.1201 67.1697C53.3906 67.9805 53.6756 68.7493 53.9759 69.4752C54.3312 70.0258 54.6992 70.5327 55.0744 71.0005C55.3719 71.3442 55.6957 71.6268 56.0426 71.8482C56.4509 71.4157 56.8384 70.9467 57.2007 70.4407C57.6534 69.7865 58.0912 69.1177 58.5129 68.4323C58.9067 67.6233 59.2857 66.8017 59.6506 65.9662C60.4337 63.9312 61.0804 61.7217 61.5942 59.3473C61.6509 59.0723 61.7082 58.7985 61.7659 58.5257C61.9002 59.1918 62.0345 59.8568 62.1684 60.52C62.0345 59.8567 61.9004 59.1918 61.7662 58.5257C61.9085 58.676 62.0497 58.8263 62.1901 58.9767C63.3636 60.1937 64.4804 61.0612 65.5335 61.6017C65.9627 61.7648 66.3792 61.9003 66.7845 62.007C67.1559 62.0062 67.5162 61.9813 67.8657 61.935C68.1327 61.8883 68.3924 61.8 68.6444 61.6732C68.722 61.2413 68.7767 60.8035 68.8084 60.3605C68.8396 59.7908 68.8594 59.2155 68.8655 58.634C68.8157 58.005 68.7514 57.369 68.6737 56.724C68.4179 55.1757 68.0074 53.5602 67.4344 51.8703C67.3645 51.6708 67.2945 51.4705 67.2254 51.2688C67.3687 51.2467 67.511 51.225 67.6524 51.2048C68.8102 51.0108 69.7942 50.6627 70.6192 50.1762C70.9355 49.945 71.2351 49.7073 71.5176 49.4612C71.745 49.1777 71.9577 48.8862 72.1577 48.5897C72.3069 48.3555 72.4397 48.1018 72.5544 47.8287C72.4622 47.5025 72.3514 47.188 72.224 46.8853C72.0522 46.499 71.8695 46.1133 71.6732 45.7303C71.4215 45.3573 71.1557 44.9855 70.8735 44.6142C70.1355 43.7608 69.2447 42.966 68.1842 42.2335C68.0554 42.1475 67.9255 42.0603 67.7949 41.9713C67.8817 41.8263 67.9689 41.683 68.0555 41.5408C68.7614 40.3465 69.294 39.1713 69.6694 38.0113C69.7969 37.5238 69.9112 37.0427 70.0105 36.566C70.056 36.1068 70.0887 35.6508 70.1102 35.1985C70.1212 34.847 70.1114 34.4918 70.0809 34.1343C69.8765 33.9325 69.6624 33.7577 69.4392 33.6103C69.1462 33.4287 68.8422 33.2593 68.5274 33.1035C68.174 33.0122 67.8079 32.9372 67.4277 32.878C66.4782 32.834 65.4307 33.0057 64.2782 33.415C64.1389 33.4683 63.9979 33.5205 63.856 33.5732C64.0882 33.0728 64.317 32.5795 64.543 32.093C64.5225 32.2468 64.5027 32.403 64.4839 32.5613C65.5207 32.3975 66.3919 32.1072 67.1127 31.7018C67.4192 31.4797 67.7064 31.2503 67.9749 31.0103C68.177 30.7297 68.3625 30.44 68.5339 30.1435C68.7479 29.7447 68.9004 29.282 68.9896 28.7595C68.9902 28.7017 68.9995 28.6545 69.0176 28.618C69.0176 28.618 69.0297 28.619 69.0394 28.6265C69.0472 28.6317 69.0567 28.6425 69.0607 28.6545C69.071 28.675 69.0787 28.6937 69.0816 28.7083C69.2174 29.8878 69.1997 30.9348 69.0247 31.8357C69.0229 31.851 69.0201 31.8662 69.018 31.8817C69.0275 31.8943 69.0372 31.907 69.0467 31.9197C69.5124 32.4805 69.932 33.1548 70.3034 33.9327C70.6017 34.7615 70.8106 35.586 70.9286 36.4017C70.9312 36.4187 70.9345 36.4357 70.9377 36.4527C70.9477 36.4557 70.9572 36.4593 70.967 36.463C71.5562 36.61 72.1451 37.0027 72.7235 37.6183C72.7295 37.6278 72.7369 37.6437 72.743 37.6637C72.7477 37.6728 72.7492 37.6882 72.7484 37.6992C72.748 37.7135 72.7434 37.7282 72.7434 37.7282C72.716 37.7353 72.6864 37.7292 72.6554 37.7082C72.3347 37.6162 72.016 37.6215 71.7027 37.7253C71.4637 37.8172 71.2214 37.9297 70.9764 38.0648C70.7254 38.2952 70.4719 38.5515 70.215 38.8342C69.6791 39.538 69.1514 40.4538 68.6359 41.5903C68.7349 41.6213 68.8324 41.6507 68.9289 41.6782L68.9291 41.678V41.6783H68.9289C68.851 41.7508 68.7727 41.8255 68.6937 41.9025C69.5604 42.6777 70.3569 43.2437 71.0839 43.6135C71.4129 43.7412 71.7292 43.847 72.0342 43.9307C72.3012 43.9323 72.558 43.9147 72.8047 43.8803C73.1225 43.8207 73.4122 43.6698 73.6712 43.4315C73.6919 43.3973 73.7172 43.3778 73.7442 43.3708C73.7442 43.3708 73.7535 43.3813 73.7585 43.394C73.7632 43.4032 73.7659 43.418 73.7655 43.4287C73.7662 43.4495 73.7664 43.4675 73.763 43.4785ZM61.8682 50.6592C62.0337 50.5875 62.1967 50.5203 62.3572 50.4575C62.4347 50.249 62.5149 50.0405 62.5972 49.8318C62.8389 49.2222 63.0889 48.6157 63.3472 48.014C63.4202 48.0753 63.4929 48.1363 63.5655 48.1973C63.8065 48.7293 64.036 49.2537 64.2544 49.7705C64.5259 50.4128 64.7657 51.0417 64.9727 51.6597C65.3429 52.5387 65.6282 53.3978 65.8324 54.2307C66.0952 55.3337 66.274 56.404 66.3699 57.4452C66.3747 57.5102 66.3789 57.5747 66.383 57.6392C66.3439 57.6267 66.3046 57.6135 66.2652 57.5993C65.6224 57.341 64.952 56.936 64.255 56.3763C63.7192 55.9357 63.1719 55.3507 62.6224 54.6165C62.2206 54.1833 61.8157 53.6905 61.4056 53.1418C61.0736 52.6978 60.7381 52.2328 60.3982 51.7465C60.3726 51.6212 60.3474 51.4955 60.3222 51.3698C60.8567 51.1105 61.3717 50.8735 61.8682 50.6592ZM55.5859 53.478C55.6031 52.7347 55.6297 51.9815 55.6667 51.219C55.7261 51.091 55.7854 50.9632 55.8444 50.836C56.4367 51.198 57.0014 51.5587 57.5382 51.9182C57.7181 52.0383 57.8927 52.1597 58.0632 52.2815C58.2536 52.1947 58.4459 52.1108 58.6392 52.0305C59.2007 51.7955 59.7622 51.5757 60.3221 51.3698C60.3474 51.4955 60.3726 51.6212 60.3981 51.7465C60.2925 52.4332 60.1802 53.112 60.0609 53.7833C59.9097 54.6325 59.7374 55.4513 59.5389 56.2377C59.3176 57.4713 59.0271 58.6185 58.673 59.6702C58.1837 61.094 57.6239 62.4223 56.9899 63.6503C56.9491 63.7267 56.9077 63.802 56.8656 63.8768C56.8384 63.8113 56.8111 63.7447 56.785 63.677C56.3794 62.5545 56.0607 61.2665 55.8326 59.8207C55.6685 58.7257 55.5967 57.5033 55.6247 56.1717C55.576 55.313 55.5647 54.4137 55.5859 53.478ZM48.9397 49.6498C49.5174 48.9212 50.1397 48.2153 50.7976 47.5303C51.3111 46.9965 51.8299 46.4737 52.3535 45.9628C52.4802 45.9302 52.6062 45.8975 52.7316 45.8652C52.9417 46.7095 53.1355 47.5395 53.3122 48.355C53.372 48.6308 53.4277 48.904 53.4802 49.1747C53.6842 49.3063 53.8884 49.4417 54.0916 49.5813C54.6834 49.9872 55.2674 50.4058 55.8444 50.836C55.7852 50.9632 55.7261 51.091 55.6665 51.219C55.1414 51.662 54.6077 52.0977 54.0664 52.5257C53.3706 53.075 52.6662 53.5838 51.9522 54.0433C50.8816 54.8835 49.7914 55.5842 48.6987 56.1352C47.1759 56.887 45.634 57.4763 44.083 57.8888C43.9846 57.913 43.8859 57.9352 43.7877 57.956C43.8232 57.8563 43.8597 57.7562 43.8979 57.6558C44.5387 56.0652 45.3587 54.4822 46.3434 52.9255C47.0696 51.7962 47.9404 50.6965 48.9397 49.6498ZM52.4506 41.8183C52.3236 42.0482 52.1941 42.2742 52.0627 42.4965C52.1262 42.7703 52.1872 43.0478 52.2454 43.329C52.4175 44.1577 52.5799 45.0032 52.7316 45.8648C52.6062 45.8973 52.4802 45.93 52.3535 45.9627C51.6774 45.7613 50.9994 45.5468 50.3197 45.319C49.4461 45.0253 48.5931 44.6938 47.7676 44.319C46.4242 43.862 45.1667 43.2903 44.0202 42.6158C42.4441 41.671 40.9922 40.6103 39.6879 39.4422C39.6072 39.367 39.5277 39.2913 39.4502 39.2148C39.5494 39.184 39.6496 39.1555 39.7509 39.1273C41.3552 38.7248 43.0299 38.4945 44.7572 38.4282C45.9991 38.3913 47.3004 38.4977 48.6404 38.7445C49.4889 38.8135 50.3476 38.934 51.2134 39.0968C51.8862 39.2238 52.5534 39.3615 53.2152 39.5098C53.3217 39.5993 53.4277 39.6885 53.5337 39.7773C53.1834 40.4675 52.8221 41.148 52.4506 41.8183Z" fill="url(#paint0_linear_13_122)"/>
</g>
</g>
<defs>
<linearGradient id="paint0_linear_13_122" x1="18.6437" y1="45.9875" x2="73.7658" y2="45.9875" gradientUnits="userSpaceOnUse">
<stop stop-color="#9BB1FF"/>
<stop offset="0.488764" stop-color="#5B9DFF"/>
<stop offset="1" stop-color="#2B1AEC"/>
</linearGradient>
<clipPath id="clip0_13_122">
<rect width="100" height="100" fill="white"/>
</clipPath>
</defs>
</svg>
